<svg viewBox="0 0 40 40" xmlns="http://www.w3.org/2000/svg" xmlns:xlink="http://www.w3.org/1999/xlink" width="40.000000" height="40.000000" fill="none">
	<rect id="86" width="40.000000" height="40.000000" x="0.000000" y="0.000000" transform="matrix(-1,0,0,1,40,0)" />
	<path id="Vector" d="M13.1953 0.195324C11.8453 -0.354676 10.2953 0.295324 9.74533 1.66199L8.69532 4.22866C8.14532 5.57866 8.79533 7.12866 10.162 7.69532L13.9787 9.24532C13.5787 11.162 12.962 13.412 11.9953 15.8453C10.912 18.5953 9.66199 20.862 8.52866 22.6787L4.71199 21.1287C3.34532 20.5787 1.79532 21.2287 1.24532 22.5953L0.195324 25.162C-0.354676 26.5287 0.295324 28.0787 1.66199 28.6287L5.11199 30.0287L5.17866 30.062C8.89532 31.562 13.1787 30.112 15.112 26.612C16.412 24.262 17.6953 21.6287 18.8787 18.6787C19.9453 16.012 20.7787 13.462 21.412 11.0953C22.462 7.21199 20.4287 3.16199 16.712 1.64532L16.6453 1.59532L13.1953 0.195324Z" fill-rule="nonzero" stroke="rgb(255,168,115)" stroke-linecap="round" stroke-linejoin="round" stroke-width="2" transform="matrix(-1,0,0,1,30.429,4.58801)" />
</svg>
