<svg viewBox="0 0 40 40" xmlns="http://www.w3.org/2000/svg" xmlns:xlink="http://www.w3.org/1999/xlink" width="40.000000" height="40.000000" fill="none">
	<rect id="37" width="40.000000" height="40.000000" x="0.000000" y="0.000000" />
	<g id="Group">
		<path id="Vector" d="M20.85 14.8333C20.9166 15.0333 21.1 15.15 21.2833 15.1666L23.7833 15.4C24.3167 15.45 24.5166 16.1 24.1333 16.45L22.25 18.1C22.1 18.2333 22.0333 18.4333 22.0833 18.6166L22.6333 21.0666C22.75 21.5833 22.2 21.9833 21.7333 21.7166L19.5833 20.4333C19.4166 20.3333 19.2 20.3333 19.0333 20.4333L16.8833 21.7166C16.4333 21.9833 15.8666 21.5833 15.9833 21.0666L16.5333 18.6166C16.5833 18.4333 16.5166 18.2333 16.3666 18.1L14.4833 16.45C14.0833 16.1 14.3 15.45 14.8333 15.4L17.3333 15.1666C17.5333 15.15 17.7 15.0333 17.7833 14.85L18.7666 12.55C18.9666 12.05 19.65 12.05 19.8666 12.5333L20.85 14.8333Z" fill-rule="nonzero" stroke="rgb(255,168,115)" stroke-linecap="round" stroke-linejoin="round" stroke-width="2" />
		<path id="Vector" d="M11.3333 22.6667C5.07411 22.6667 0 17.5926 0 11.3333C0 5.07411 5.07411 0 11.3333 0C17.5926 0 22.6667 5.07411 22.6667 11.3333C22.6667 17.5926 17.5926 22.6667 11.3333 22.6667Z" stroke="rgb(255,168,115)" stroke-linecap="round" stroke-linejoin="round" stroke-width="2" transform="matrix(0.00688207,-1,1,0.00688207,7.90091,28.5851)" />
		<g id="Group">
			<path id="Vector" d="M17.7667 28.55L14.95 35.6334L11.3833 31.55L6 32.05L9.56667 23.1167" fill-rule="nonzero" stroke="rgb(255,168,115)" stroke-linecap="round" stroke-linejoin="round" stroke-width="2" />
			<path id="Vector" d="M20.8333 28.55L23.6666 35.6334L27.2166 31.55L32.6166 32.05L29.0333 23.1167" fill-rule="nonzero" stroke="rgb(255,168,115)" stroke-linecap="round" stroke-linejoin="round" stroke-width="2" />
		</g>
	</g>
</svg>
