<svg viewBox="0 0 20 24" xmlns="http://www.w3.org/2000/svg" xmlns:xlink="http://www.w3.org/1999/xlink" width="20.000000" height="24.000000" fill="none">
	<rect id="64" width="20.000000" height="24.000000" x="0.000000" y="0.000000" />
	<g id="Group 1711">
		<path id="Vector" d="M4.66634 19.22C3.55505 19.22 2.68327 18.24 2.75033 17.09L3.46883 5.44C3.49757 4.91 3.91909 4.5 4.42684 4.5L16.0666 4.5C16.5743 4.5 16.9863 4.91 17.0246 5.44L17.7431 17.09C17.8101 18.24 16.9384 19.22 15.8271 19.22L4.66634 19.22Z" fill-rule="nonzero" stroke="rgb(255,255,255)" stroke-linecap="round" stroke-linejoin="round" stroke-width="1.20000005" />
		<path id="Vector" d="M12.4668 6.71997L12.4668 8.62997C12.4668 9.69997 11.7418 10.56 10.8585 10.56L9.69183 10.56C8.80016 10.56 8.0835 9.68997 8.0835 8.62997L8.0835 6.71997" fill-rule="nonzero" stroke="rgb(255,255,255)" stroke-linecap="round" stroke-linejoin="round" stroke-width="1.20000005" />
	</g>
</svg>
